<?xml version="1.0" encoding="utf-8"?>
<!-- Generator: Adobe Illustrator 20.1.0, SVG Export Plug-In . SVG Version: 6.00 Build 0)  -->
<svg version="1.1" id="Layer_1" xmlns="http://www.w3.org/2000/svg" xmlns:xlink="http://www.w3.org/1999/xlink" x="0px" y="0px"
	 viewBox="0 0 323.1 56.7" style="enable-background:new 0 0 323.1 56.7;" xml:space="preserve">
<style type="text/css">
	.st0{fill:#ED1C24;}
</style>
<g>
	<path d="M63.9,4.8H52.1c-2.3,0-3.1,0.6-4,2.6l-13,28.2h-0.9L28.8,7.3c-0.3-2-1-2.6-3.3-2.6H11c-0.9,0-1.7,0.7-1.9,1.6L1.8,51
		c-0.1,0.5,0.3,1,0.8,1h10.1c0.4,0,0.8-0.3,0.8-0.7l4.8-34h0.9l6.7,32.3c0.4,1.9,0.8,2.4,2.9,2.4h5.6c2,0,2.6-0.5,3.6-2.4l15.7-32h1
		L50.2,51c-0.1,0.5,0.3,1,0.8,1h10.5c0.4,0,0.8-0.3,0.8-0.7l5.9-41.4C68.7,7.2,66.6,4.8,63.9,4.8z"/>
	<path d="M156.3,41.6l-18.2,0l5-35.8c0.1-0.6-0.4-1.1-1-1.1h-7.5c-2.3,0-4.3,1.7-4.6,4L124,51c-0.1,0.5,0.3,1,0.8,1h26.9
		c0.3,0,0.6-0.2,0.7-0.4l4.5-8.7C157.4,42.3,157,41.6,156.3,41.6z"/>
	<path d="M266.8,6.6c-1.7-1.4-4.5-1.9-9-1.9h-27.1c-1.6,0-3,1.2-3.2,2.8L221.3,51c-0.1,0.5,0.3,1,0.9,1h10.9c0.4,0,0.8-0.3,0.8-0.7
		l1.8-10.9l17.5-1.7c4.1-0.3,7.7-2.6,9.6-4.3c2.5-2.2,5.4-5.4,6.6-14C270.7,11.6,269,8.6,266.8,6.6z M256.4,20.3
		c-0.5,3.4-1,4.7-1.6,5.7c-0.5,0.8-1.2,1.4-1.9,2c-0.7,0.6-1.8,1.3-3.5,1.5l-12.3,1.2l2-17c0-0.2,0.2-0.4,0.5-0.4h11.9
		c2.9,0,3.7,0.2,4.2,0.6C256.5,14.5,257.1,15.7,256.4,20.3z"/>
	<path d="M202.8,7.7c-0.7-2.5-1.2-3.1-4-3.1h-10.5c-2.9,0-3.5,0.5-4.9,3.1L161,50.7c-0.3,0.6,0.1,1.3,0.8,1.3h10.7
		c0.3,0,0.6-0.2,0.8-0.5l5.5-11.3h15.2l-2-9.8h-8.5l7.8-16h1l7.5,36.8c0.1,0.4,0.4,0.7,0.8,0.7h11.7c0.6,0,1-0.5,0.8-1.1L202.8,7.7z
		"/>
	<path d="M320.7,19.7c1-8.3,0.4-10.9-1.5-12.9c-1.5-1.5-4.1-2-8.8-2h-18.8c-4.1,0-6.8,0.8-8.6,2.2c-2.8,2.2-4.5,5.5-5.4,11.5
		c-0.9,6.4-0.3,8.9,1.5,10.8c1.5,1.4,3.7,2.2,7.3,2.5l16.3,1.5c2.2,0.1,3.3,0.4,3.7,0.8c0.6,0.6,0.6,1.6,0.3,4
		c-0.4,2.8-0.6,3.4-1.2,3.9c-0.6,0.5-1.6,0.6-3.9,0.6h-11.6c-2.3,0-3-0.2-3.4-0.6c-0.5-0.5-0.8-0.6-0.3-4.9l-11.9-0.5h0
		c-1.1,8.4-0.7,11.3,1.3,13.3c1.6,1.6,4.2,2.1,8.8,2.1h20.4c4.3,0,7-0.8,8.8-2.2c2.8-2.2,4.4-5.5,5.3-12c0.9-6.4,0.3-9-1.5-10.9
		c-1.4-1.4-3.5-2.1-7.2-2.4L293.9,23c-2.4-0.3-3.2-0.3-3.7-0.8c-0.5-0.5-0.6-1.6-0.2-3.9c0.4-2.6,0.7-4,1.3-4.5
		c0.5-0.4,1.4-0.5,3.4-0.5h10.7c2.2,0,2.8,0.3,3.2,0.7c0.5,0.5,0.6,1.4,0.2,5.2L320.7,19.7z"/>
	<g>
		<path class="st0" d="M97.3,16.6c2.9,0,5.6-2.6,6.1-5.7l0.2-1.5c0.3-1.6-0.1-3.2-1.1-4.3c-0.8-1-2-1.5-3.4-1.5
			c-2.9,0-5.6,2.6-6.1,5.7l-0.2,1.5c-0.3,1.6,0.1,3.2,1.1,4.3C94.8,16,95.9,16.6,97.3,16.6z"/>
		<path class="st0" d="M121.6,13.3L100.1,39l-1.8,12.3C98.3,51.7,98,52,97.6,52H87.3c-0.5,0-0.9-0.5-0.8-1l2.1-13.4
			c0.1-0.9,0.4-1.7,0.9-2.5c0.2-0.4,0.5-0.7,0.7-1.1l22.5-26.9c1.2-1.5,3-2.3,4.9-2.3h4.1c2.8,0,4.3,3.2,2.5,5.3L121.6,13.3z"/>
		<path class="st0" d="M76.8,4.8h5.7c1,0,2,0.6,2.5,1.5L94.2,24l-5.6,6.7c-1,1.2-3,1-3.7-0.4L74,9.4C72.9,7.3,74.4,4.8,76.8,4.8z"/>
	</g>
</g>
</svg>
